General
Complete name            : Sherlock Holmes[2009]BRrip[Ac3-5.1]-=[CaLvIn]=-
Imdb                             : http://www.imdb.com/title/tt0988045
Format                           : AVI
Format/Info                      : Audio Video Interleave
File size                        : 898 MiB
Duration                         : 2h 8mn
Overall bit rate                 : 978 Kbps
Writing application              : VirtualDubMod 1.5.10.3 | 

Video
ID                               : 0
Format                           : MPEG-4 Visual
Format profile                   : Advanced Simple@L5
Format settings, BVOP            : 2
Format settings, QPel            : No
Format settings, GMC             : No warppoints
Format settings, Matrix          : Default (H.263)
Codec ID                         : XVID
Codec ID/Hint                    : XviD
Duration                         : 2h 8mn
Bit rate                         : 777 Kbps
Width                            : 720 pixels
Height                           : 400 pixels
Display aspect ratio             : 16:9
Frame rate                       : 23.976 fps
Color space                      : YUV
Chroma subsampling               : 4:2:0
Bit depth                        : 8 bits
Scan type                        : Progressive
Compression mode                 : Lossy
Bits/(Pixel*Frame)               : 0.112
Stream size                      : 713 MiB (79%)
Writing library                  : XviD 1.2.1 (UTC 2008-12-04)

Audio
ID                               : 1
Format                           : AC-3
Format/Info                      : Audio Coding 3
Mode extension                   : CM (complete main)
Codec ID                         : 2000
Duration                         : 2h 8mn
Bit rate mode                    : Constant
Bit rate                         : 192 Kbps
Channel(s)                       : 6 channels
Channel positions                : Front: L C R, Side: L R, LFE
Sampling rate                    : 48.0 KHz
Bit depth                        : 16 bits
Compression mode                 : Lossy
Stream size                      : 176 MiB (20%)
Alignment                        : Split accross interleaves
Interleave, duration             : 42 ms (1.00 video frame)
Interleave, preload duration     : 500 ms

ScreensShots
 
http://img826.imageshack.us/img826/9236/16407361.png 
http://img526.imageshack.us/img526/8571/32979664.png 
http://img820.imageshack.us/img820/8393/78787097.png 
http://img827.imageshack.us/img827/5485/45557065.png 
http://img100.imageshack.us/img100/6103/36066168.png 
http://img40.imageshack.us/img40/4963/46470084.png 
http://img651.imageshack.us/img651/8956/50462360.png 
http://img827.imageshack.us/img827/4159/17532604.png 
http://img718.imageshack.us/img718/1687/83091548.png 
http://img594.imageshack.us/img594/9330/43005020.png